<?xml version="1.0" encoding="utf-8"?>
<svg viewBox="-0.0001 0.0005 24.0004 21.6928" xmlns="http://www.w3.org/2000/svg">
	<path d="M 23.834 6.948 C 23.315 10.201 21.659 13.163 19.161 15.31 C 16.663 17.456 13.485 18.646 10.191 18.669 C 9.524 18.695 8.856 18.654 8.197 18.548 C 5.357 18.066 3.239 15.665 3.115 12.787 C 3.128 11.229 3.753 9.739 4.856 8.638 C 7.149 6.347 10.857 6.321 13.182 8.579 C 14.3 9.664 14.946 11.146 14.982 12.703 C 15.007 13.687 14.581 14.549 13.705 14.575 C 12.769 14.575 12.33 13.907 12.33 13.007 L 12.33 10.506 C 12.331 9.665 11.653 8.98 10.811 8.974 L 8.715 8.974 C 7.476 8.965 6.318 9.586 5.639 10.622 C 4.186 12.838 5.506 15.814 8.123 16.226 C 9.347 16.418 10.584 15.977 11.41 15.053 L 11.483 14.944 L 11.557 15.066 C 12.069 15.761 12.894 16.154 13.757 16.114 C 15.332 15.999 16.528 14.65 16.452 13.073 C 16.46 12.422 16.386 11.773 16.235 11.14 C 15.846 9.352 14.81 7.772 13.325 6.703 C 10.25 4.49 6 4.955 3.477 7.782 C 2.258 9.146 1.588 10.914 1.596 12.744 C 1.619 14.683 2.393 16.539 3.756 17.92 C 5.118 19.301 6.963 20.099 8.903 20.149 C 8.903 20.149 9.452 20.199 10.07 20.185 C 13.078 20.165 16.018 19.288 18.545 17.656 C 18.581 17.631 18.617 17.681 18.593 17.717 C 16.103 20.399 12.558 21.849 8.903 21.68 C 6.517 21.724 4.217 20.79 2.536 19.096 C 0.855 17.401 -0.06 15.093 0.003 12.707 C 0.004 9.853 1.351 7.167 3.637 5.459 C 5.153 4.343 6.985 3.739 8.867 3.733 L 11.68 3.733 C 13.902 3.731 16.02 2.796 17.519 1.155 C 17.534 1.138 17.555 1.126 17.578 1.121 C 17.625 1.111 17.673 1.132 17.697 1.173 C 17.709 1.193 17.715 1.217 17.713 1.241 C 17.594 2.505 17.173 3.722 16.485 4.79 C 16.465 4.828 16.468 4.874 16.494 4.909 C 16.521 4.943 16.565 4.959 16.607 4.949 C 19.24 4.354 21.434 2.544 22.52 0.072 C 22.533 0.05 22.552 0.032 22.575 0.02 C 22.62 -0.006 22.676 -0.006 22.722 0.02 C 22.744 0.032 22.763 0.05 22.776 0.072 C 23.879 2.185 24.251 4.602 23.834 6.948 Z M 8.895 10.475 C 7.515 10.475 6.48 11.737 6.749 13.09 C 6.922 13.958 7.6 14.637 8.468 14.81 C 9.822 15.079 11.084 14.043 11.083 12.663 L 11.083 10.621 C 11.079 10.54 11.014 10.475 10.933 10.471 L 8.895 10.475 Z" style="paint-order: fill;"/>
</svg>